<svg width="155" height="134" viewBox="0 0 155 134" fill="none" xmlns="http://www.w3.org/2000/svg">
<path d="M65.875 20.1L73.625 6.7L77.4591 8.91746L77.4796 8.95294L77.5 8.94113L77.5204 8.95294L77.5409 8.91745L81.375 6.69999L89.125 20.1L85.2296 22.3529L92.9796 35.753L96.875 33.5L104.625 46.9L100.73 49.1529L108.48 62.553L112.375 60.3L120.125 73.7L116.23 75.9529L123.98 89.3529L127.875 87.1L135.625 100.5L131.73 102.753L139.48 116.153L143.375 113.9L151.125 127.3L147.321 129.5H147.25V129.541L147.23 129.553L147.25 129.588V134H131.75V129.5H116.25V134H100.75V129.5H85.25V134H69.75V129.5H54.25V134H38.75V129.5H23.25V134H7.75V129.588L7.77042 129.553L7.75 129.541V129.5H7.6789L3.875 127.3L11.625 113.9L15.5204 116.153L23.2704 102.753L19.375 100.5L27.125 87.1L31.0204 89.3529L38.7704 75.9529L34.875 73.7L42.625 60.3L46.5204 62.5529L54.2704 49.1529L50.375 46.9L58.125 33.5L62.0204 35.7529L69.7704 22.3529L65.875 20.1Z" fill="#D18A00" stroke="black" stroke-width="9" stroke-dasharray="15 15"/>
<path d="M78.4865 95.5778C77.045 95.5778 75.7838 95.0938 74.7027 94.1259C73.6937 93.0889 73.1892 91.879 73.1892 90.4963V48.1852C73.1892 46.8025 73.6937 45.5926 74.7027 44.5556C75.7838 43.5185 77.045 43 78.4865 43C80 43 81.2613 43.5185 82.2703 44.5556C83.2793 45.5926 83.7838 46.8025 83.7838 48.1852V90.4963C83.7838 91.879 83.2793 93.0889 82.2703 94.1259C81.2613 95.0938 80 95.5778 78.4865 95.5778ZM77.6216 113C75.964 113 74.5946 112.447 73.5135 111.341C72.5045 110.235 72 108.852 72 107.193C72 105.464 72.6486 103.909 73.9459 102.526C75.2432 101.143 76.7207 100.452 78.3784 100.452C80.036 100.452 81.3694 101.04 82.3784 102.215C83.4595 103.321 84 104.669 84 106.259C84 108.126 83.3514 109.716 82.0541 111.03C80.7568 112.343 79.2793 113 77.6216 113Z" fill="black"/>
</svg>
